<svg width="116" height="130" viewBox="0 0 116 130" fill="none" xmlns="http://www.w3.org/2000/svg"><path d="M73.772 65.624c-.755-.715-1.267-1.496-1.39-2.348-.329-2.339-.35-4.62-.35-5.118-.014-2.232.047-6.882.255-9.271-.046.076-2.592-.801-2.43 1.146.512 6.183-5.604 10.336-12.674 10.19-4.342-.092-8.242-3.226-11.072-7.654a26.736 26.736 0 0 1-1.258-2.176c.38 2.922.588 5.711.665 8.48 0 .127-.026 1.02-.061 1.968-.142 4.093-8.43 8.323-12.441 9.713 10.275 17.903 26.317 30.096 46.427 7.76l5.792-7.238c-2.095-.964-8.577-2.729-11.463-5.457v.005Z" fill="#EEEAFF"/><path d="M72.281 51.245c-.045.082-.09.158-.137.239.046-.076.092-.157.137-.234v-.005Z" fill="#F6F6FF"/><path fill-rule="evenodd" clip-rule="evenodd" d="M108.312 84.37c-.035-.077-.071-.148-.101-.224a13.808 13.808 0 0 0-7.07-6.806L77.293 67.11s-18.8 38.089-39.347-.964l-22.265 9.018a14.767 14.767 0 0 0-7.618 6.999l-.243.487C3.225 91.825.912 101.978.912 112.244V130h114.176v-14.779c0-10.656-2.267-21.205-6.776-30.857v.005Z" fill="#fff"/><path fill-rule="evenodd" clip-rule="evenodd" d="M45.482 57.98C36.865 66.42 32.747 83 30.201 95.44a6.085 6.085 0 0 0 .64 12.137 6.085 6.085 0 0 0 2.078-11.801c4.301-22.17 9.931-31.177 12.609-34.204 0-1.831.081-2.293-.046-3.596v.005Z" fill="#4C0069"/><path fill-rule="evenodd" clip-rule="evenodd" d="M30.841 97.794a3.704 3.704 0 0 1 0 7.405 3.703 3.703 0 0 1 0-7.405Zm58.904-12.816 1.806.223-2.049 22.29s-4.661 8.648-5.99 9.617c-1.004-.543-1.699-1.157-1.82-1.218 0 0 5.507-6.289 6.1-9.656.59-3.368 1.948-21.256 1.948-21.256h.005Z" fill="#AC9AF8"/><path fill-rule="evenodd" clip-rule="evenodd" d="m75.259 85.875-1.831.73 8.389 19.152c.415.953.466 1.065 1.207 1.75 1.663 1.541 6.912 6.319 8.226 6.735.781-.832 1.243-1.633 1.339-1.735 0 0-7.03-4.169-8.663-7.176-1.633-3.003-8.667-19.46-8.667-19.46v.004Z" fill="#AC9AF8"/><path fill-rule="evenodd" clip-rule="evenodd" d="M86.717 73.952c-1.131-.781-2.5-1.334-4.043-1.583-2.835-5.99-5.553-9.656-10.645-14.21 0 0-.046 1.358.198 3.22 2.606 2.084 6.126 6.821 8.267 10.848-1.943.056-4.083.563-6.335 1.664-2.653 1.293-2.277 6.172-1.932 8.186.344 2.018 1.374 5.472 1.552 5.822.573-.117 1.82-.43 2.2-.588 0 0-2.505-8.612-1.085-10.63 1.806-2.567 7.34-2.653 9.906-1.056 3.91 2.44 5.32 8.79 4.417 13.06l2.298.345c.613-6.745-.934-12.416-4.793-15.078h-.005Zm5.476 41.563a5.99 5.99 0 0 1-1.181-1.075l1.521-2.237c.467.162.482.076 1.456.761s2.19 1.795 1.491 2.881c-.7 1.085-1.826.695-3.287-.325v-.005Zm-11.527 1.202c.32-.482.68-.887 1.045-1.207l2.277 1.461c-.152.471-.066.482-.725 1.476-.66.989-1.735 2.241-2.84 1.567-1.106-.67-.746-1.811.238-3.292l.005-.005Z" fill="#4C0069"/><g fill-rule="evenodd" clip-rule="evenodd"><path d="M58.045 59.725c7.45.157 11.102-3.54 14.206-9.317 1.07-1.993 1.897-4.24 2.5-6.664-.03-1.268.391-3.286.569-6.005.137-2.074.42-3.966.857-5.447v-.03a6.158 6.158 0 0 1-.183.233c-.324-5.24-1.577-14.78-2.328-17.021-1.689-1.4-1.075-11.209-17.857-10.149-10.053-.593-14.186 10.59-14.252 10.697-1.025 1.633-1.243 8.312-1.81 15.798.02.228.04.457.065.685.36 1.415.583 3.145.69 5.026.08 1.476.233 2.744.355 3.799a32.722 32.722 0 0 0 2.916 8.186c3.124 6.025 7.232 10.204 14.272 10.2v.01Z" fill="#EEEAFF"/><path d="m39.554 31.617.193.208c.32.345.558.614.654.68.573-3.58-.299-.837 1.43-10.605.523-2.942.731-3.682 1.36-4.681.243-.386 1.613-.63 3.631-.766 7.79-.543 25.273.41 25.339.471.75 2.242 2.81 11.103 3.834 15.576.066-.081.122-.157.183-.233 0 0 .005-.01.01-.016.583-1.937 1.445-3.15 2.607-3.073.117.005.228.03.335.066.37-3.956.243-8.232.05-12.588C79.302 4.073 66-.574 55.9.056 38.17 1.16 34.119 12.999 36.827 29.198c1.618 0 2.307 1.167 2.723 2.42h.005Z" fill="#4C0069"/><path d="M39.95 32.51a15.942 15.942 0 0 0-.26-.898c-.562-1.694-1.363-2.733-2.439-2.672a1.5 1.5 0 0 0-.75.258c-1.517 1-2.095 4.742-.883 8.277 1.395 4.073 2.247 7.75 4.296 7.639 1.425-.077 1.35-1.375 1.08-3.779-.116-1.055-.274-2.323-.355-3.799-.101-1.881-.33-3.616-.69-5.026Zm-1.654 5.082c.304 1.278.898 1.46.857 2.516-.172 4.103-1.227.75-1.871-.487-.796-1.532-1.004-4.605-.847-5.772.157-1.166.624-3.454 1.547-3.403.887.045 2.216 3.17.968 4.62-.324.38-.958 1.253-.654 2.531v-.005Z" fill="#EEEAFF"/><path d="M37.982 30.446c-.923-.046-1.39 2.242-1.547 3.403-.157 1.167.051 4.24.847 5.772.645 1.237 1.7 4.59 1.872.487.046-1.055-.553-1.233-.857-2.516-.304-1.278.33-2.15.654-2.53 1.248-1.451-.081-4.575-.969-4.621v.005Z" fill="#AC9AF8"/><path d="m76.192 32.252-.015.045c-.442 1.476-.726 3.373-.857 5.447-.178 2.719-.599 4.737-.568 6.005.025.984.32 1.522 1.217 1.578 2.049.132 2.936-3.54 4.377-7.593 1.359-3.83.603-7.922-1.212-8.485a1.226 1.226 0 0 0-.335-.066c-1.162-.076-2.019 1.131-2.607 3.074v-.005Zm2.465 7.602c-.66 1.233-1.745 4.57-1.877.472-.035-1.055.563-1.233.883-2.506.314-1.273-.304-2.155-.63-2.536-1.227-1.465.133-4.574 1.015-4.61.923-.04 1.37 2.252 1.517 3.424.142 1.166-.097 4.24-.908 5.761v-.005Z" fill="#EEEAFF"/><path d="M78.049 30.67c-.888.035-2.247 3.144-1.015 4.61.325.385.944 1.262.63 2.535-.315 1.273-.914 1.45-.883 2.506.131 4.103 1.217.76 1.876-.467.812-1.521 1.05-4.595.908-5.761-.147-1.167-.588-3.46-1.516-3.424Zm-4.363 34.939c-10.504 1.374-26.44-5.103-29.842-16.073 2.51 5.097 8.754 10.22 14.814 10.21 5.848-.01 11.087-4.707 13.613-9.414-.451 5.234-.801 10.489 1.415 15.282v-.005Z" fill="#AC9AF8"/></g></svg>