<svg width="124" height="48" viewBox="0 0 124 48" fill="none" xmlns="http://www.w3.org/2000/svg">
<g id="Mode_Isolation" clip-path="url(#clip0_1047_29528)">
<path id="Vector" d="M4.89816 15.6951C6.13461 12.9839 9.60572 11.8428 11.9381 11.8428C17.5986 11.8428 20.9267 15.5521 20.9267 21.8773V32.293C20.9267 33.6248 19.8332 34.7659 18.4062 34.7659C17.0745 34.7659 16.0286 33.6248 16.0286 32.293V22.1632C16.0286 18.6921 13.8416 16.6456 11.0828 16.6456C8.32401 16.6456 4.90054 18.2156 4.90054 22.5896V32.293C4.90054 33.6248 3.80703 34.7659 2.37999 34.7659C1.04824 34.7659 0.00238426 33.6248 0.00238426 32.293V2.4729C1.88593e-06 1.14116 1.09351 0 2.52055 0C3.85229 0 4.89816 1.14116 4.89816 2.4729V15.6951ZM81.7058 0.238237C83.514 0.238237 84.941 1.56998 84.941 3.33055C84.941 5.09113 83.514 6.42287 81.7058 6.42287C79.8976 6.42287 78.4253 5.09113 78.4253 3.33055C78.4253 1.56998 79.9476 0.238237 81.7058 0.238237ZM84.1787 14.5539C84.1787 13.2222 83.0852 12.081 81.6581 12.081C80.3264 12.081 79.2805 13.2222 79.2805 14.5539V32.293C79.2805 33.6248 80.3264 34.7659 81.6581 34.7659C83.0852 34.7659 84.1787 33.6248 84.1787 32.293V14.5539ZM93.1674 0.238237C94.9756 0.238237 96.4026 1.56998 96.4026 3.33055C96.4026 5.09113 94.9756 6.42287 93.1674 6.42287C91.3591 6.42287 89.8868 5.09113 89.8868 3.33055C89.8868 1.56998 91.4092 0.238237 93.1674 0.238237ZM95.6403 14.5539C95.6403 13.2222 94.5468 12.081 93.1197 12.081C91.788 12.081 90.7421 13.2222 90.7421 14.5539V32.293C90.7421 33.6248 91.788 34.7659 93.1197 34.7659C94.5468 34.7659 95.6403 33.6248 95.6403 32.293V14.5539ZM121.275 25.1602H105.818C106.294 28.5837 109.051 30.7254 112.619 30.7254C114.949 30.7254 116.281 29.9178 117.899 28.5861C118.706 27.9214 120.038 27.5879 121.039 28.3955C121.942 29.1078 121.989 30.5825 121.134 31.4878C118.899 33.8177 115.664 35.0066 112.384 35.0066C106.058 35.0066 100.97 30.3943 100.97 23.3544C100.97 16.3145 106.058 11.8451 112.384 11.8451C118.709 11.8451 123.323 16.1263 123.512 22.9279C123.512 24.212 122.466 25.1626 121.277 25.1626L121.275 25.1602ZM118.706 21.5938C118.23 18.1227 115.709 16.1239 112.381 16.1239C109.053 16.1239 106.294 18.168 105.818 21.5938H118.706ZM71.7213 17.5581H73.7129V12.4789H63.4735C62.9518 12.4074 62.4157 12.3717 61.8773 12.3717C55.2877 12.3717 49.9297 17.7344 49.9297 24.3216C49.9297 30.9089 55.2901 36.2692 61.8773 36.2692C68.4646 36.2692 73.8249 30.9089 73.8249 24.3216C73.8249 21.8106 73.0482 19.483 71.7213 17.5581ZM61.8773 32.2311C57.5152 32.2311 53.9678 28.6814 53.9678 24.3216C53.9678 19.9619 57.5176 16.4098 61.8773 16.4098C62.006 16.4098 62.1322 16.4098 62.2585 16.4217C63.6164 16.4836 64.8863 16.8934 65.9798 17.5581C68.2621 18.9494 69.7868 21.4604 69.7868 24.3216C69.7868 28.6837 66.2371 32.2311 61.8773 32.2311ZM44.4932 12.4122C43.2138 11.9404 41.7963 12.5956 41.3246 13.8725C41.3032 13.9297 39.5307 18.7183 36.0476 27.0328L30.0203 13.7105C29.458 12.4693 27.9976 11.919 26.754 12.4789C25.5128 13.0411 24.9601 14.5039 25.5223 15.7451L33.4199 33.2055C29.0268 43.3639 19.1686 41.2388 18.7373 41.1388C17.4151 40.8291 16.0905 41.6438 15.7737 42.9661C15.4568 44.2907 16.274 45.6224 17.5986 45.9416C17.6939 45.9631 19.1805 46.3109 21.3532 46.3109C22.5539 46.3109 23.9643 46.2037 25.4652 45.8797C29.4199 45.022 34.7993 42.4658 37.9559 35.1566C43.2305 22.947 45.9273 15.6546 45.9535 15.5831C46.4253 14.3038 45.7701 12.8862 44.4932 12.4145V12.4122Z" fill="#7556F4"/>
<path id="Vector_2" d="M73.7153 36.0501C73.7153 42.6397 68.3549 48 61.7677 48C57.2197 48 52.9982 45.3532 51.0113 41.2579C50.5253 40.2549 50.9446 39.0471 51.9476 38.5611C52.9505 38.0751 54.1584 38.4944 54.6468 39.4974C55.9809 42.249 58.7111 43.9619 61.7701 43.9619C66.1322 43.9619 69.6796 40.4122 69.6796 36.0501C69.6796 35.221 69.5509 34.4205 69.315 33.6701C68.8934 32.3407 68.131 31.1591 67.128 30.2371C65.72 28.9339 63.8356 28.1406 61.7701 28.1406C59.8189 28.1406 57.9607 28.8529 56.5217 30.1323C55.5187 29.2079 54.7564 28.0286 54.3395 26.6945C56.4359 25.0245 59.0446 24.1001 61.7725 24.1001C64.6599 24.1001 67.3115 25.1293 69.3794 26.8446C70.5324 27.7975 71.5068 28.9649 72.2358 30.2847C73.1816 31.9953 73.72 33.9583 73.72 36.0501H73.7153Z" fill="url(#paint0_linear_1047_29528)"/>
</g>
<defs>
<linearGradient id="paint0_linear_1047_29528" x1="67.7379" y1="46.3991" x2="55.7903" y2="25.7034" gradientUnits="userSpaceOnUse">
<stop stop-color="#9700D1"/>
<stop offset="0.26" stop-color="#A600BE"/>
<stop offset="0.79" stop-color="#CE008F"/>
<stop offset="1" stop-color="#E1007A"/>
</linearGradient>
<clipPath id="clip0_1047_29528">
<rect width="123.512" height="48" fill="white"/>
</clipPath>
</defs>
</svg>
