<svg width="124" height="48" viewBox="0 0 124 48" fill="none" xmlns="http://www.w3.org/2000/svg"><g clip-path="url(#a)" fill="#fff"><path d="M4.898 15.695c1.237-2.711 4.708-3.852 7.04-3.852 5.66 0 8.989 3.71 8.989 10.034v10.416c0 1.332-1.094 2.473-2.52 2.473-1.332 0-2.378-1.141-2.378-2.473v-10.13c0-3.47-2.187-5.517-4.946-5.517S4.9 18.216 4.9 22.59v9.703c0 1.332-1.094 2.473-2.52 2.473-1.333 0-2.379-1.141-2.379-2.473V2.473C0 1.14 1.094 0 2.521 0c1.331 0 2.377 1.141 2.377 2.473v13.222ZM81.706.238c1.808 0 3.235 1.332 3.235 3.093 0 1.76-1.427 3.092-3.235 3.092-1.808 0-3.28-1.332-3.28-3.092 0-1.761 1.522-3.093 3.28-3.093Zm2.473 14.316c0-1.332-1.094-2.473-2.52-2.473-1.333 0-2.378 1.141-2.378 2.473v17.739c0 1.332 1.045 2.473 2.377 2.473 1.427 0 2.52-1.141 2.52-2.473v-17.74ZM93.167.238c1.809 0 3.236 1.332 3.236 3.093 0 1.76-1.427 3.092-3.236 3.092-1.808 0-3.28-1.332-3.28-3.092 0-1.761 1.522-3.093 3.28-3.093Zm2.473 14.316c0-1.332-1.093-2.473-2.52-2.473-1.332 0-2.378 1.141-2.378 2.473v17.739c0 1.332 1.046 2.473 2.378 2.473 1.427 0 2.52-1.141 2.52-2.473v-17.74Zm25.635 10.606h-15.457c.476 3.424 3.233 5.565 6.801 5.565 2.33 0 3.662-.807 5.28-2.139.807-.665 2.139-.998 3.14-.19.903.712.95 2.186.095 3.092-2.235 2.33-5.47 3.519-8.75 3.519-6.326 0-11.414-4.613-11.414-11.653s5.088-11.509 11.414-11.509c6.325 0 10.939 4.281 11.128 11.083a2.232 2.232 0 0 1-2.235 2.235l-.002-.003Zm-2.569-3.566c-.476-3.471-2.997-5.47-6.325-5.47-3.328 0-6.087 2.044-6.563 5.47h12.888Zm-46.985-4.036h1.992v-5.08h-10.24a11.788 11.788 0 0 0-1.596-.106c-6.59 0-11.947 5.362-11.947 11.95 0 6.587 5.36 11.947 11.947 11.947 6.588 0 11.948-5.36 11.948-11.947a11.87 11.87 0 0 0-2.104-6.764Zm-9.844 14.673c-4.362 0-7.91-3.55-7.91-7.91s3.55-7.911 7.91-7.911c.129 0 .255 0 .381.012a7.84 7.84 0 0 1 3.722 1.136 7.916 7.916 0 0 1 3.807 6.764c0 4.362-3.55 7.91-7.91 7.91ZM44.493 12.412a2.468 2.468 0 0 0-3.168 1.46c-.022.058-1.794 4.846-5.277 13.16L30.02 13.71a2.47 2.47 0 0 0-4.498 2.035l7.898 17.46c-4.393 10.159-14.251 8.034-14.683 7.934a2.468 2.468 0 0 0-1.138 4.803c.095.021 1.581.369 3.754.369 1.201 0 2.611-.107 4.112-.431 3.955-.858 9.334-3.414 12.491-10.723 5.275-12.21 7.971-19.502 7.998-19.574a2.468 2.468 0 0 0-1.46-3.168v-.003Z"/><path d="M73.715 36.05c0 6.59-5.36 11.95-11.947 11.95-4.548 0-8.77-2.647-10.757-6.742a2.019 2.019 0 1 1 3.636-1.76 7.863 7.863 0 0 0 7.123 4.464c4.362 0 7.91-3.55 7.91-7.912 0-.829-.13-1.63-.365-2.38a7.921 7.921 0 0 0-2.187-3.433 7.864 7.864 0 0 0-5.358-2.096 7.88 7.88 0 0 0-5.248 1.991 7.87 7.87 0 0 1-2.183-3.438 11.91 11.91 0 0 1 7.433-2.594c2.888 0 5.54 1.03 7.607 2.745a11.992 11.992 0 0 1 2.857 3.44 11.872 11.872 0 0 1 1.484 5.765h-.005Z"/></g><defs><clipPath id="a"><path fill="#fff" d="M0 0h123.512v48H0z"/></clipPath></defs></svg>