<svg width="429" height="385" viewBox="0 0 429 385" fill="none" xmlns="http://www.w3.org/2000/svg">
<path d="M428.726 243.425C428.726 262.329 424.863 281.53 417.229 299.738C404.441 330.244 382.215 355.129 354.66 369.824C323.878 386.24 288.239 389.138 251.606 378.201C179.63 356.706 108.782 308.739 41.0181 235.642C39.3683 233.86 37.7595 232.078 36.1712 230.296C-22.3498 164.152 -1.99912 86.6514 41.6739 42.6271C65.7443 18.3672 96.5777 3.4364 128.508 0.569031C164.311 -2.63626 199.12 9.45789 229.154 35.5407C271.598 72.417 314.584 102.924 356.925 126.221C390.484 144.695 413.458 172.191 423.357 205.76C426.943 217.905 428.716 230.593 428.716 243.425H428.726ZM3.91344 140.425C3.91344 169.201 14.1093 199.533 39.0609 227.736C40.6287 229.497 42.217 231.259 43.8463 233.02C111.129 305.616 181.393 353.214 252.702 374.514C331.881 398.16 390.597 353.255 413.653 298.263C436.791 243.107 427.64 169.569 355.05 129.621C312.473 106.19 269.261 75.5199 226.613 38.4695C161.893 -17.7514 86.802 2.62741 44.4099 45.3511C20.5854 69.3653 3.90319 103.63 3.90319 140.435L3.91344 140.425Z" fill="url(#paint0_linear_814_43955)"/>
<defs>
<linearGradient id="paint0_linear_814_43955" x1="428.726" y1="0.063915" x2="101.661" y2="429.116" gradientUnits="userSpaceOnUse">
<stop stop-color="#9700D1"/>
<stop offset="1" stop-color="#E1007A"/>
</linearGradient>
</defs>
</svg>
